<svg viewBox="0 0 16 11" fill="none" xmlns="http://www.w3.org/2000/svg">
<path d="M10.6667 4.83333C11.7733 4.83333 12.66 3.94 12.66 2.83333C12.66 1.72666 11.7733 0.833328 10.6667 0.833328C9.55999 0.833328 8.66666 1.72666 8.66666 2.83333C8.66666 3.94 9.55999 4.83333 10.6667 4.83333ZM5.33332 4.83333C6.43999 4.83333 7.32666 3.94 7.32666 2.83333C7.32666 1.72666 6.43999 0.833328 5.33332 0.833328C4.22666 0.833328 3.33332 1.72666 3.33332 2.83333C3.33332 3.94 4.22666 4.83333 5.33332 4.83333ZM5.33332 6.16666C3.77999 6.16666 0.666656 6.94666 0.666656 8.5V10.1667H9.99999V8.5C9.99999 6.94666 6.88666 6.16666 5.33332 6.16666ZM10.6667 6.16666C10.4733 6.16666 10.2533 6.18 10.02 6.2C10.7933 6.75999 11.3333 7.51333 11.3333 8.5V10.1667H15.3333V8.5C15.3333 6.94666 12.22 6.16666 10.6667 6.16666Z" fill="#847974"/>
</svg>
