<svg viewBox="0 0 12 15" fill="none" xmlns="http://www.w3.org/2000/svg">
<path d="M8 0.166672H4V1.50001H8V0.166672ZM5.33333 8.83334H6.66667V4.83334H5.33333V8.83334ZM10.6867 4.42667L11.6333 3.48001C11.3467 3.14001 11.0333 2.82001 10.6933 2.54001L9.74667 3.48667C8.71333 2.66001 7.41333 2.16667 6 2.16667C2.68667 2.16667 0 4.85334 0 8.16667C0 11.48 2.68 14.1667 6 14.1667C9.32 14.1667 12 11.48 12 8.16667C12 6.75334 11.5067 5.45334 10.6867 4.42667ZM6 12.8333C3.42 12.8333 1.33333 10.7467 1.33333 8.16667C1.33333 5.58667 3.42 3.50001 6 3.50001C8.58 3.50001 10.6667 5.58667 10.6667 8.16667C10.6667 10.7467 8.58 12.8333 6 12.8333Z" fill="#847974"/>
</svg>