<svg width="24" height="24" viewBox="0 0 24 24" fill="none" xmlns="http://www.w3.org/2000/svg">
<path d="M21.0338 14.1686C21.4417 13.3354 21.5531 12.393 21.3649 11.4975L23.0887 10.4565C23.1551 10.4164 23.2166 10.3695 23.2706 10.3174C23.4739 10.1235 23.5894 9.8625 23.5958 9.582C23.6025 9.30112 23.499 9.03487 23.3051 8.83162L23.2031 8.72475C23.1315 8.64937 23.0479 8.5905 22.9601 8.54062L22.995 8.50725C23.2129 8.29988 23.3366 8.02012 23.3438 7.71937C23.3509 7.41862 23.2402 7.13363 23.0329 6.91613C22.6042 6.46763 21.8906 6.45113 21.4421 6.879L21.4065 6.91275C21.3611 6.8235 21.3071 6.73725 21.2344 6.66113L21.1324 6.55387C20.9381 6.35062 20.6771 6.23513 20.3966 6.22875C20.1157 6.22425 19.8495 6.3255 19.6481 6.51788C19.5915 6.5715 19.5409 6.6315 19.4993 6.6945L18.3784 8.36775C18.219 8.3265 18.0585 8.29275 17.8958 8.27063C17.685 6.79388 17.2316 5.87325 17.211 5.832L17.0434 5.49638L16.5251 5.7555L15.9742 2.17537C15.8134 1.1325 14.9306 0.375 13.875 0.375C12.8194 0.375 11.9366 1.1325 11.7761 2.17575L11.2196 5.793L10.7441 5.42325L10.5394 5.83238C10.509 5.89313 9.83587 7.2645 9.75788 9.35513C9.27938 9.17025 8.76825 9.05475 8.23462 9.01838C8.175 7.041 7.87725 5.25 6.375 5.25V6C6.91388 6 7.19287 6.57488 7.33912 7.39163C6.87862 6.993 6.28013 6.75 5.625 6.75H3V7.125C3 8.4405 3.9735 9.5295 5.23725 9.71813C3.67762 10.6294 2.625 12.3173 2.625 14.25C2.625 14.2605 2.62687 14.2706 2.62687 14.2811C1.1385 14.7844 0.375 15.4031 0.375 16.125C0.375 20.2605 3.7395 23.625 7.875 23.625H16.125C20.2605 23.625 23.625 20.2605 23.625 16.125C23.625 15.3476 22.7524 14.6906 21.0338 14.1686ZM22.875 16.125C22.875 16.8491 20.4165 17.7926 16.206 18.1879L19.6324 15.7965C19.8041 15.6765 19.9684 15.5426 20.1195 15.3983L20.1833 15.3375C20.349 15.1793 20.4941 15.0083 20.6276 14.8309C22.2784 15.3045 22.875 15.8186 22.875 16.125ZM13.1134 14.0186L15.8599 16.7651L16.3901 16.2349L13.3901 13.2349L13.0729 13.5521C13.0297 13.2285 12.9592 12.9143 12.8595 12.612L14.5969 10.3553C14.7011 10.2199 14.8174 10.0909 14.9415 9.97237L15.0049 9.91162C16.3507 8.62687 18.4916 8.67638 19.7767 10.023C21.0615 11.3693 21.0116 13.5101 19.665 14.7949L19.6012 14.856C19.4775 14.9741 19.3433 15.0836 19.203 15.1819L14.7379 18.2985C13.8814 18.3472 12.9686 18.375 12 18.375C11.7037 18.375 11.4143 18.3716 11.1285 18.3668C12.3686 17.3846 13.125 15.876 13.125 14.25C13.125 14.172 13.1168 14.0959 13.1134 14.0186ZM22.4498 9.14887C22.53 9.15075 22.6046 9.18375 22.6605 9.24225L22.7629 9.3495C22.818 9.40762 22.848 9.48375 22.8461 9.564C22.8439 9.64425 22.8109 9.71887 22.752 9.77512C22.737 9.78975 22.7197 9.80287 22.7006 9.81413L21.1354 10.7595C21.0885 10.6477 21.0375 10.5375 20.9805 10.4291L22.2349 9.23175C22.293 9.177 22.3598 9.15225 22.4498 9.14887ZM22.4899 7.434C22.5592 7.50637 22.596 7.60162 22.5934 7.70175C22.5911 7.80188 22.5499 7.89488 22.4771 7.96425L20.5646 9.78975C20.4874 9.69263 20.4067 9.597 20.3194 9.5055C20.232 9.414 20.1401 9.32925 20.0467 9.2475L21.1995 8.14762C21.1995 8.14762 21.1999 8.14725 21.1999 8.14688L21.9592 7.422C22.1092 7.27838 22.3474 7.28475 22.4899 7.434ZM20.1229 7.11C20.1341 7.09312 20.1472 7.07737 20.1637 7.06162C20.2219 7.00612 20.2965 6.9795 20.3783 6.97837C20.4585 6.98025 20.5335 7.01325 20.589 7.07175L20.691 7.179C20.8054 7.29862 20.8009 7.48875 20.6816 7.60312L19.4261 8.80125C19.3208 8.739 19.2128 8.68275 19.1033 8.631L20.1229 7.11ZM17.1307 8.23837C16.1753 8.28525 15.2318 8.65837 14.4866 9.369L14.4233 9.42975C14.2718 9.5745 14.1304 9.73162 14.0029 9.89738L12.5235 11.8189C12.0615 10.9395 11.3576 10.2086 10.5008 9.711C10.5008 9.67463 10.503 9.64087 10.5037 9.60488L16.6852 6.51412C16.8169 6.86212 17.0081 7.45988 17.1307 8.23837ZM12.5175 2.28938C12.621 1.61475 13.1921 1.125 13.875 1.125C14.5579 1.125 15.129 1.61475 15.2325 2.28938L15.8201 6.108L13.2667 7.38488L11.8976 6.31988L12.5175 2.28938ZM11.0344 6.59925L12.5228 7.75688L10.5533 8.74162C10.6538 7.78388 10.8761 7.03612 11.0344 6.59925ZM3.78787 7.5H5.625C6.53062 7.5 7.28813 8.14537 7.46212 9H5.625C4.71938 9 3.96187 8.35463 3.78787 7.5ZM7.49813 9.76912C7.5 10.0163 7.5 10.2619 7.5 10.5V11.1923C7.26525 11.1165 7.125 10.9804 7.125 10.875H6.375C6.375 11.5057 7.03387 12 7.875 12C8.71613 12 9.375 11.5057 9.375 10.875H8.625C8.625 10.98 8.48475 11.1161 8.25 11.1923V10.5C8.25 10.2585 8.24962 10.0136 8.24775 9.76875C10.5551 9.95925 12.375 11.8946 12.375 14.25C12.375 15.996 11.3591 17.5853 9.7815 18.3248C7.99087 18.243 6.43687 18.0664 5.16037 17.8354C4.04287 16.9871 3.375 15.6532 3.375 14.25C3.375 11.8961 5.19263 9.9615 7.49813 9.76912ZM2.69438 15.0476C2.83687 15.9626 3.21712 16.824 3.795 17.5425C2.07225 17.1075 1.125 16.5742 1.125 16.125C1.125 15.8764 1.54725 15.4597 2.69438 15.0476ZM16.125 22.875H7.875C4.5675 22.875 1.81313 20.4817 1.23975 17.337C3.07387 18.5145 7.55625 19.125 12 19.125C16.4438 19.125 20.9261 18.5145 22.7603 17.337C22.1869 20.4817 19.4325 22.875 16.125 22.875Z" fill="#FCFBFB" stroke="#FCFBFB" stroke-width="0.3" stroke-linejoin="round"/>
</svg>