<svg viewBox="0 0 24 24" fill="none" xmlns="http://www.w3.org/2000/svg">
<g clip-path="url(#clip0)">
<path d="M8.33185 17.8458C8.28552 17.93 8.21375 17.9553 8.14636 17.9553C8.07898 17.9553 8.0116 17.93 7.96527 17.8458L7.48059 16.9356V18.7811C7.48059 18.895 7.34161 18.9539 7.20685 18.9539C7.06769 18.9539 6.93292 18.895 6.93292 18.7811V16.1475C6.93292 15.9453 7.06769 15.8737 7.20685 15.8737C7.40479 15.8737 7.49341 15.9159 7.63239 16.1643L8.15076 17.1082L8.66895 16.1643C8.80811 15.9159 8.90076 15.8737 9.09888 15.8737C9.23785 15.8737 9.37262 15.9453 9.37262 16.1475V18.7811C9.37262 18.895 9.23364 18.9539 9.09888 18.9539C8.95972 18.9539 8.82495 18.895 8.82495 18.7811V16.9693L8.33185 17.8458Z" fill="#FCFBFB"/>
<path d="M10.8977 17.1967H11.5382C11.6477 17.1967 11.7109 17.3022 11.7109 17.4159C11.7109 17.5127 11.6561 17.6266 11.5382 17.6266H10.8977V18.4735H12.0901C12.1998 18.4735 12.2629 18.5872 12.2629 18.7179C12.2629 18.8316 12.2082 18.9539 12.0901 18.9539H10.5901C10.468 18.9539 10.3499 18.8948 10.3499 18.7811V16.0464C10.3499 15.9327 10.4678 15.8736 10.5901 15.8736H12.0901C12.2082 15.8736 12.2629 15.9959 12.2629 16.1096C12.2629 16.2403 12.1998 16.354 12.0901 16.354H10.8977V17.1967Z" fill="#FCFBFB"/>
<path d="M14.5087 18.7811L13.6027 17.0872V18.7811C13.6027 18.895 13.4637 18.9539 13.3288 18.9539C13.1898 18.9539 13.0549 18.895 13.0549 18.7811V16.0464C13.0549 15.9285 13.1898 15.8737 13.3288 15.8737C13.5269 15.8737 13.6069 15.9159 13.7377 16.1643L14.5508 17.7361V16.0422C14.5508 15.9243 14.6856 15.8736 14.8248 15.8736C14.9595 15.8736 15.0985 15.9241 15.0985 16.0422V18.7811C15.0985 18.8948 14.9595 18.9539 14.8248 18.9539C14.694 18.9539 14.5803 18.9118 14.5087 18.7811Z" fill="#FCFBFB"/>
<path d="M17.5382 16.0422C17.5382 15.9243 17.673 15.8737 17.812 15.8737C17.9469 15.8737 18.0859 15.9243 18.0859 16.0422V18.0142C18.0859 18.7179 17.6393 18.9792 17.0746 18.9792C16.5057 18.9792 16.0633 18.7179 16.0633 18.0142V16.0422C16.0633 15.9243 16.1981 15.8737 16.3372 15.8737C16.472 15.8737 16.611 15.9243 16.611 16.0422V18.0142C16.611 18.3429 16.7838 18.4989 17.0746 18.4989C17.3654 18.4989 17.538 18.3429 17.538 18.0142V16.0422H17.5382Z" fill="#FCFBFB"/>
<path d="M18.6215 19.7882H16.6185C16.4218 19.7882 16.2625 19.9475 16.2625 20.144C16.2625 20.3406 16.4218 20.4997 16.6185 20.4997H18.6215C18.8181 20.4997 18.9772 20.3406 18.9772 20.144C18.9772 19.9475 18.8181 19.7882 18.6215 19.7882Z" fill="#FCFBFB"/>
<path d="M14.9628 19.7882H6.8562C6.65973 19.7882 6.50043 19.9475 6.50043 20.144C6.50043 20.3406 6.65973 20.4997 6.8562 20.4997H14.9628C15.1595 20.4997 15.3186 20.3406 15.3186 20.144C15.3186 19.9475 15.1595 19.7882 14.9628 19.7882Z" fill="#FCFBFB"/>
<path d="M18.6215 14.3551H6.8562C6.65973 14.3551 6.50043 14.5144 6.50043 14.7108C6.50043 14.9073 6.65973 15.0666 6.8562 15.0666H18.6215C18.8181 15.0666 18.9772 14.9073 18.9772 14.7108C18.9772 14.5144 18.8181 14.3551 18.6215 14.3551Z" fill="#FCFBFB"/>
<path d="M18.4235 9.94353H18.0782C17.9449 7.49194 16.1528 5.47448 13.8074 4.99695L13.8761 4.34051C13.8986 4.12628 13.8287 3.91168 13.6846 3.75183C13.5405 3.5918 13.3343 3.50006 13.119 3.50006H12.3589C12.1434 3.50006 11.9374 3.59198 11.7931 3.75183C11.649 3.91186 11.5792 4.12646 11.6017 4.34051L11.6704 4.99695C9.32501 5.47448 7.53296 7.49175 7.39966 9.94335H7.05432C6.7489 9.94335 6.50043 10.1918 6.50043 10.4972V11.2315C6.50043 11.5369 6.7489 11.7854 7.05432 11.7854H18.4233C18.7288 11.7854 18.9772 11.5369 18.9772 11.2315V10.4972C18.9772 10.192 18.7289 9.94353 18.4235 9.94353ZM12.3219 4.22809C12.3318 4.21728 12.3441 4.21179 12.3589 4.21179H13.119C13.1336 4.21179 13.1461 4.21728 13.1559 4.22809C13.1658 4.23907 13.17 4.25207 13.1684 4.26654L13.1019 4.90228C12.982 4.89422 12.861 4.88965 12.739 4.88965C12.6169 4.88965 12.496 4.89422 12.3761 4.90228L12.3094 4.26654C12.308 4.25207 12.3122 4.23907 12.3219 4.22809ZM18.2657 11.0738H7.21216V10.6551H8.71161C8.90826 10.6551 9.06757 10.4958 9.06757 10.2993C9.06757 10.1028 8.90826 9.94353 8.71161 9.94353H8.11267C8.26465 7.52361 10.2814 5.60138 12.7388 5.60138C15.1965 5.60138 17.2132 7.52361 17.3652 9.94353H10.3672C10.1706 9.94353 10.0115 10.1028 10.0115 10.2993C10.0115 10.4958 10.1706 10.6551 10.3672 10.6551H18.2657V11.0738Z" fill="#FCFBFB"/>
<path d="M21.1633 0H4.31451C3.815 0 3.40851 0.406493 3.40851 0.906004V1.5487H3.07654C2.4657 1.5487 1.96875 2.04583 1.96875 2.65667C1.96875 3.26751 2.4657 3.76464 3.07654 3.76464H3.40851V5.28606H3.07654C2.4657 5.28606 1.96875 5.78301 1.96875 6.39403C1.96875 7.00487 2.4657 7.50182 3.07654 7.50182H3.40851V9.02342H3.07654C2.4657 9.02342 1.96875 9.52037 1.96875 10.1314C1.96875 10.7422 2.4657 11.2392 3.07654 11.2392H3.40851V12.7608H3.07654C2.4657 12.7608 1.96875 13.2577 1.96875 13.8686C1.96875 14.4796 2.4657 14.9765 3.07654 14.9765H3.40851V16.4981H3.07654C2.4657 16.4981 1.96875 16.9951 1.96875 17.6059C1.96875 18.2169 2.4657 18.7139 3.07654 18.7139H3.40851V20.2355H3.07654C2.4657 20.2355 1.96875 20.7324 1.96875 21.3433C1.96875 21.9541 2.4657 22.4513 3.07654 22.4513H3.40851V23.094C3.40851 23.5935 3.815 24 4.31451 24H21.1633C21.6628 24 22.0695 23.5935 22.0695 23.094V0.906004C22.0695 0.406493 21.6628 0 21.1633 0V0ZM3.40833 3.05309H3.07654C2.85809 3.05309 2.6803 2.8753 2.6803 2.65667C2.6803 2.43823 2.85809 2.26043 3.07654 2.26043H3.40833V3.05309ZM3.40833 6.79027H3.07654C2.85809 6.79027 2.6803 6.61248 2.6803 6.39403C2.6803 6.1754 2.85809 5.99779 3.07654 5.99779H3.40833V6.79027ZM3.40833 10.5276H3.07654C2.85809 10.5276 2.6803 10.3498 2.6803 10.1314C2.6803 9.91276 2.85809 9.73497 3.07654 9.73497H3.40833V10.5276ZM3.40833 14.265H3.07654C2.85809 14.265 2.6803 14.0872 2.6803 13.8686C2.6803 13.6501 2.85809 13.4723 3.07654 13.4723H3.40833V14.265ZM3.40833 18.0022H3.07654C2.85809 18.0022 2.6803 17.8246 2.6803 17.6059C2.6803 17.3875 2.85809 17.2097 3.07654 17.2097H3.40833V18.0022ZM3.40833 21.7395H3.07654C2.85809 21.7395 2.6803 21.5617 2.6803 21.3433C2.6803 21.1247 2.85809 20.947 3.07654 20.947H3.40833V21.7395ZM21.3578 23.0938C21.3578 23.2011 21.2706 23.2884 21.1633 23.2884H4.31451C4.20721 23.2884 4.12006 23.2011 4.12006 23.0938V0.906004C4.12006 0.798888 4.20721 0.711547 4.31451 0.711547H21.1633C21.2706 0.711547 21.3578 0.798888 21.3578 0.906004V23.0938Z" fill="#FCFBFB"/>
</g>
<defs>
<clipPath id="clip0">
<rect width="24" height="24" fill="white"/>
</clipPath>
</defs>
</svg>
