<svg xmlns="http://www.w3.org/2000/svg" viewBox="0 0 512 512"><path d="M448,200a8,8,0,0,0-8-8h-5.228L471.6,70.042c5.873-16.577,5.548-32.746-.919-45.551A44.222,44.222,0,0,0,443.58,2.05a48.057,48.057,0,0,0-52.734,17.8A47.976,47.976,0,0,0,304,48v69.033A103.419,103.419,0,0,0,272,112c-49.992,0-91.175,35.212-95.6,80H160a8,8,0,0,0-8,8v33.321L101.041,277H0v16H104a8,8,0,0,0,5.206-1.926L152,254.394V280h16V208H400v44l-3.036-2.277-47.843-39.868a8,8,0,0,0-11.777,1.708c-.685,1.026-14.21,22.071,4.384,50.743l-69-6.272A8,8,0,0,0,264,264v24a8,8,0,0,0,6.431,7.845l27.575,5.515-26.8,2.681A8,8,0,0,0,264,312v24a8,8,0,0,0,8,8h25.492L269.7,352.337a8,8,0,0,0-5.291,10.193l8,24a8,8,0,0,0,9.53,5.23l67.979-16.994-11.577,11.576a8,8,0,0,0,2.079,12.813l16,8a8,8,0,0,0,8.228-.646L401,380.545V496H168V476.281l3.563,2.375a8,8,0,0,0,10.095-1c.754-.755,15.662-16.285-3.06-43.934l68.678,6.243A8,8,0,0,0,256,432V408a8,8,0,0,0-6.431-7.845l-27.575-5.515,26.8-2.681A8,8,0,0,0,256,384V360a8,8,0,0,0-8-8H222.508l27.791-8.337a8,8,0,0,0,5.291-10.193l-8-24a8,8,0,0,0-9.53-5.23L170.08,321.233l11.577-11.576a8,8,0,0,0-2.079-12.812l-16-8a8,8,0,0,0-8.228.646L101.437,328H0v16H104a8,8,0,0,0,4.649-1.49l52.081-37.2,1.765.882-24.152,24.151a8,8,0,0,0,7.6,13.418l88.813-22.2,3.05,9.149-72.1,21.63A8,8,0,0,0,168,368h72v8.76l-72.8,7.28a8,8,0,0,0-.773,15.8L240,414.559v8.681l-79.275-7.206a8,8,0,0,0-6.382,13.624c13.8,13.8,17.2,23.444,17.611,29.1.023.33.038.648.043.957l-39.375-26.25L100.8,409.6A8,8,0,0,0,96,408H0v16H93.333L123.2,446.4q.177.133.362.256L152,465.615V504a8,8,0,0,0,8,8H440a8,8,0,0,0,8-8V384H432V496H417V369.117L418.563,368H512V352H416a8,8,0,0,0-4.649,1.49l-52.081,37.2-1.765-.882,24.152-24.151a8,8,0,0,0-7.6-13.418l-88.812,22.2-3.05-9.149,72.1-21.63A8,8,0,0,0,352,328H280v-8.76l72.8-7.28a8,8,0,0,0,.773-15.8L280,281.441v-8.681l79.275,7.206a8,8,0,0,0,6.382-13.624c-15.552-15.551-18.176-28.4-17.584-36.534l38.806,32.337c.1.088.212.173.321.255l32,24A8,8,0,0,0,424,288h88V272H448ZM414.6,19.819a31.8,31.8,0,0,1,24.369-2.449A28,28,0,0,1,456.4,31.7c4.562,9.031,4.584,20.5.064,33.15-.045.125-.086.251-.124.378L453.3,75.308,427.021,64.592l-6.041,14.816,27.674,11.284-7.112,23.55-22.39-9.6-6.3,14.707,24.038,10.3L418.06,192H400V48a47.989,47.989,0,0,0-.9-9.225A31.792,31.792,0,0,1,414.6,19.819ZM320,112h32V96H320V80h32V64H320V48a32,32,0,0,1,64,0V192H367.6c-2.878-29.133-21.306-54.213-47.6-68.187ZM213.13,151.31l8.465,20.717,14.811-6.053-10.2-24.959A84.37,84.37,0,0,1,256,129.449V152h16V128a86.593,86.593,0,0,1,37.837,8.581L297.317,155.6l13.365,8.8,12.8-19.448a76.215,76.215,0,0,1,13.524,13.165L321.541,179.28l12.918,9.439,11.609-15.887A65.7,65.7,0,0,1,351.494,192H192.506A68.783,68.783,0,0,1,213.13,151.31ZM416,264V208h16v64h-5.333Z" fill="#FCFBFB"/></svg>
