<svg viewBox="0 0 20 24" fill="none" xmlns="http://www.w3.org/2000/svg">
<path d="M14.5512 3.50391H8.32776C8.06887 3.50391 7.85901 3.29405 7.85901 3.03516C7.85901 2.77627 8.06887 2.56641 8.32776 2.56641H14.5512C14.81 2.56641 15.0199 2.77627 15.0199 3.03516C15.0199 3.29405 14.81 3.50391 14.5512 3.50391Z" fill="#FCFBFB"/>
<path d="M15.7408 17.5064H7.04297C6.78408 17.5064 6.57422 17.2965 6.57422 17.0376V14.9261C6.57422 14.6672 6.78408 14.4573 7.04297 14.4573H15.7408C15.9997 14.4573 16.2096 14.6672 16.2096 14.9261V17.0376C16.2096 17.2965 15.9997 17.5064 15.7408 17.5064ZM7.51172 16.5689H15.2721V15.3948H7.51172V16.5689Z" fill="#FCFBFB"/>
<path d="M19.0565 14.9339C19.056 14.6752 18.8463 14.4659 18.5877 14.4659H18.5869C18.3281 14.4663 18.1185 14.6766 18.119 14.9355L18.1263 19.4129H4.65666V0.9375H17.2045C17.7132 0.9375 18.1271 1.35136 18.1271 1.85958L18.1189 10.6961C18.1187 10.955 18.3284 11.1651 18.5873 11.1653H18.5877C18.8464 11.1653 19.0562 10.9557 19.0564 10.697L19.0646 1.86C19.0646 0.834375 18.2302 0 17.2045 0H2.79558C1.76991 0 0.935486 0.834375 0.935486 1.86V21.2729C0.935486 22.2984 1.76991 23.1329 2.79558 23.1329H13.4195V23.5312C13.4195 23.6953 13.5053 23.8473 13.6455 23.9323C13.7858 24.0172 13.9604 24.0226 14.1057 23.9466L15.2282 23.359L16.3507 23.9466C16.419 23.9823 16.4936 24 16.5681 24C16.6523 24 16.7363 23.9773 16.8108 23.9323C16.9511 23.8473 17.0369 23.6953 17.0369 23.5312V23.1329H18.5959C18.8548 23.1329 19.0646 22.923 19.0646 22.6641L19.0565 14.9339ZM2.79558 0.9375H3.7192V19.4129H2.79558C2.4601 19.4129 2.14505 19.5022 1.87299 19.6582V1.86C1.87299 1.35136 2.28685 0.9375 2.79558 0.9375ZM2.79558 22.1954C2.28685 22.1954 1.87299 21.7815 1.87299 21.2729C1.87299 20.7642 2.28689 20.3504 2.79558 20.3504H13.4195V22.1954H2.79558ZM16.0993 22.7568L15.4455 22.4146C15.3774 22.379 15.3028 22.3612 15.2281 22.3612C15.1535 22.3612 15.0788 22.379 15.0107 22.4146L14.357 22.7568V20.3504H16.0993V22.7568H16.0993ZM18.1271 22.1954H17.0368V20.3504H18.1271V22.1954Z" fill="#FCFBFB"/>
<path d="M16.2095 8.16709C16.2095 7.05207 15.3025 6.1449 14.1876 6.1449C14.0575 6.1449 13.9293 6.15704 13.8039 6.18118C13.3478 5.28413 12.4286 4.70804 11.3918 4.70804C10.355 4.70804 9.43586 5.28409 8.97977 6.18113C8.85433 6.15699 8.72617 6.1449 8.59605 6.1449C7.48113 6.1449 6.5741 7.05207 6.5741 8.16709C6.5741 9.12376 7.24178 9.92739 8.13564 10.1364V12.6671C8.13564 12.926 8.3455 13.1358 8.60439 13.1358H14.1792C14.4381 13.1358 14.648 12.926 14.648 12.6671V10.1364C15.5418 9.92739 16.2095 9.12376 16.2095 8.16709ZM9.07319 12.1983V10.132C9.38692 10.0556 9.67835 9.90484 9.92228 9.69297C10.3572 9.97445 10.8653 10.1259 11.3919 10.1259C11.9185 10.1259 12.4265 9.97445 12.8614 9.69297C13.1053 9.90484 13.3968 10.0555 13.7105 10.132V12.1983H9.07319V12.1983ZM14.1876 9.25178C13.8348 9.25178 13.5028 9.07891 13.2996 8.78931C13.2218 8.67845 13.0998 8.60664 12.965 8.59244C12.9486 8.5907 12.9322 8.58986 12.9159 8.58986C12.7981 8.58986 12.684 8.63425 12.5968 8.7152C12.2684 9.02036 11.8405 9.18841 11.3918 9.18841C10.9432 9.18841 10.5153 9.02036 10.1868 8.71515C10.0876 8.62295 9.95346 8.57809 9.81855 8.59239C9.68383 8.60659 9.56186 8.6784 9.48405 8.78926C9.28085 9.07886 8.94888 9.25173 8.5961 9.25173C7.99816 9.25173 7.51164 8.76517 7.51164 8.16704C7.51164 7.56892 7.99811 7.08235 8.5961 7.08235C8.75566 7.08235 8.90927 7.1162 9.05261 7.18295C9.17547 7.24014 9.31713 7.24135 9.44097 7.18632C9.56482 7.13125 9.65875 7.02526 9.6986 6.8957C9.92833 6.1479 10.6088 5.64554 11.3919 5.64554C12.175 5.64554 12.8555 6.14799 13.0852 6.89584C13.125 7.02545 13.219 7.13148 13.3428 7.18656C13.4667 7.24164 13.6084 7.24037 13.7313 7.18309C13.8747 7.11625 14.0282 7.0824 14.1876 7.0824C14.7856 7.0824 15.2721 7.56897 15.2721 8.16709C15.2721 8.76522 14.7856 9.25178 14.1876 9.25178Z" fill="#FCFBFB"/>
<path d="M18.5876 13.2928C18.3916 13.2928 18.2128 13.1665 18.1467 12.9822C18.0816 12.8009 18.137 12.5914 18.2843 12.4668C18.4381 12.3367 18.6637 12.3204 18.8349 12.4263C18.9992 12.528 19.0851 12.7264 19.0474 12.9159C19.0043 13.1325 18.8081 13.2928 18.5876 13.2928Z" fill="#FCFBFB"/>
</svg>
