<svg viewBox="0 0 42 43" fill="none" xmlns="http://www.w3.org/2000/svg">
<path d="M12.25 32C10.325 32 8.7675 33.575 8.7675 35.5C8.7675 37.425 10.325 39 12.25 39C14.175 39 15.75 37.425 15.75 35.5C15.75 33.575 14.175 32 12.25 32ZM1.75 4V7.5H5.25L11.55 20.7825L9.1875 25.07C8.9075 25.56 8.75 26.1375 8.75 26.75C8.75 28.675 10.325 30.25 12.25 30.25H33.25V26.75H12.985C12.74 26.75 12.5475 26.5575 12.5475 26.3125L12.6 26.1025L14.175 23.25H27.2125C28.525 23.25 29.68 22.5325 30.275 21.4475L36.54 10.09C36.68 9.845 36.75 9.5475 36.75 9.25C36.75 8.2875 35.9625 7.5 35 7.5H9.1175L7.4725 4H1.75ZM29.75 32C27.825 32 26.2675 33.575 26.2675 35.5C26.2675 37.425 27.825 39 29.75 39C31.675 39 33.25 37.425 33.25 35.5C33.25 33.575 31.675 32 29.75 32Z" stroke="#0A000A" stroke-linejoin="round"/>
</svg>
