<svg width="64" height="64" viewBox="0 0 64 64" fill="none" xmlns="http://www.w3.org/2000/svg">
  <path style="fill:#374151" d="M32 5.33331C18.7467 5.33331 8 16.08 8 29.3333C8 40.4533 15.5733 49.7866 25.84 52.5066L32 58.6666L38.16 52.5066C48.4267 49.7866 56 40.4533 56 29.3333C56 16.08 45.2533 5.33331 32 5.33331ZM32 10.6666C36.4267 10.6666 40 14.24 40 18.6666C40 23.0933 36.4267 26.6666 32 26.6666C27.5733 26.6666 24 23.0933 24 18.6666C24 14.24 27.5733 10.6666 32 10.6666ZM32 48.8C25.3333 48.8 19.44 45.3866 16 40.2133C16.08 34.9066 26.6667 32 32 32C37.3067 32 47.92 34.9066 48 40.2133C44.56 45.3866 38.6667 48.8 32 48.8Z" fill="#69605C"/>
</svg>

